PathFileType	4	(X/Y/Z)	/home/abdul/Desktop/myosuite/custom_workspace/IK/output/S16_12_2.trc
DataRate	CameraRate	NumFrames	NumMarkers	Units	OrigDataRate	OrigDataStartFrame	OrigNumFrames
200.0	200.0	61	3	mm	200.0	481	1280
Frame#	Time	V_Shoulder			V_Elbow			V_Wrist		
		X1	Y1	Z1	X2	Y2	Z2	X3	Y3	Z3

481	2.4	-126.48015440116585	616.7290142087885	305.7917002211222	-246.86355401191054	427.9526936524475	80.44557627322476	-112.5114920277794	382.2550107377556	281.3085119494906
482	2.405	-126.53138420824064	616.910534747596	305.7960624078257	-246.89364044920475	427.90944401178643	80.69096257180865	-112.4362151404348	382.71481438441555	281.5434656625089
483	2.41	-126.58240695388719	617.0863718724686	305.79944895881755	-246.92373005379042	427.8684117867997	80.92841104855836	-112.36113291771642	383.16049109965786	281.7648919274012
484	2.415	-126.63322244633548	617.2565602625033	305.8018932577872	-246.95378980516318	427.8295553890864	81.15791977681742	-112.28646575789267	383.5924134628124	281.9732455226583
485	2.42	-126.68382967389675	617.4211356209747	305.8034281371635	-246.98378829025384	427.7928280212555	81.3794987881171	-112.21243024029306	384.010972147591	282.16898911799694
486	2.425	-126.73422690040665	617.5801346769571	305.8040858113313	-247.0136957755608	427.75817801259814	81.5931696331227	-112.13923868387113	384.41657472263586	282.3525926889103
487	2.43	-126.78441176141638	617.7335951870253	305.80389781305115	-247.04348428182567	427.72554917335617	81.79896490563323	-112.06709872382226	384.8096443369458	282.5245328691873
488	2.435	-126.83438136071074	617.8815559368801	305.8028949332037	-247.07312766142672	427.6948811665203	81.99692773190147	-111.9962129068362	385.1906182944481	282.6852922423132
489	2.44	-126.8841323667326	618.0240567427484	305.80110716396894	-247.10260167860912	427.6661098959921	82.18711122768508	-111.92677830548723	385.5599465225558	282.8353585729515
490	2.445	-126.93366110849524	618.1611384524122	305.7985636455374	-247.13188409261255	427.6391679098497	82.36957792557172	-111.85898615218477	385.9180899400952	282.97522397998443
491	2.45	-126.98296367056874	618.2928429457273	305.79529261644115	-247.16095474369672	427.6139848173647	82.54439917524286	-111.79302149303126	386.2655187305168	283.1053840528628
492	2.455	-127.03203598673083	618.4192131344901	305.7913213675798	-247.18979564200413	427.5904877183317	82.71165451945106	-111.72906286185648	386.6027105267919	283.22633691328065
493	2.46	-127.08087393188015	618.5402929615252	305.7866762000068	-247.21839105913443	427.56860164318357	82.87143104858279	-111.66728197462402	386.9301485148661	283.3385822244484
494	2.465	-127.12947341181683	618.6561273988638	305.78138238652735	-247.2467276222432	427.54825000229386	83.02382273676565	-111.60784344433117	387.24831946297314	283.4426201504832
495	2.47	-127.17783045050567	618.7667624448922	305.7754641371509	-247.27479441041146	427.52935504278673	83.16892976255085	-111.55090451645361	387.5577116845118	283.53895026867593
496	2.475	-127.22594127444724	618.872245120354	305.7689445684272	-247.30258305296925	427.51183831111257	83.30685781726224	-111.49661482491648	387.8588129425538	283.6280704376171
497	2.48	-127.27380239379441	618.9726234630979	305.7618456766858	-247.3300878293934	427.4956211195839	83.4377174041502	-111.44511616850735	388.15210830437695	283.7104756243821
498	2.485	-127.32141067986483	619.0679465214603	305.7541883151857	-247.35730577033615	427.4806250150124	83.56162313152171	-111.39654230758299	388.43807795470775	283.7866566941772
499	2.49	-127.36876343871505	619.1582643461944	305.74599217517186	-247.38423675928232	427.46677224753864	83.67869300303752	-111.35101878086115	388.7171949766075	283.85709916603776
500	2.495	-127.41585848045621	619.2436279808439	305.737275770825	-247.41088363427303	427.453986237709	83.78904770837427	-111.30866274203092	388.98992310914696	283.9222819383488
501	2.5	-127.46269418400978	619.3240894504805	305.7280564280781	-247.43725228907914	427.44219203981754	83.89280991744029	-111.26958281586153	389.2567144911841	283.9826759881191
502	2.505	-127.50926955701873	619.399701748726	305.7183502772643	-247.46335177315348	427.4313167995113	83.99010358131345	-111.23387897343873	389.51800740068944	284.0387430480897
503	2.51	-127.55558429064786	619.4705188229838	305.70817224955107	-247.48919438964327	427.4212902036372	84.0810532430328	-111.20164242611122	389.7742239991523	284.09093426589266
504	2.515	-127.60163880902867	619.5365955578151	305.69753607710254	-247.5147957906983	427.412044920305	84.1657833613274	-111.17295553768764	390.0257680906462	284.13968884959405
505	2.52	-127.6474343131228	619.5979877563988	305.6864542969057	-247.5401750692688	427.403517027141	84.2444176503025	-111.14789175438543	390.2730229051423	284.1854327040617
506	2.525	-127.69297281880087	619.6547521200205	305.674938258183	-247.56535484655234	427.39564642571884	84.31707843802677	-111.126515551999	390.5163489156239	284.2285770626852
507	2.53	-127.73825718895581	619.7069462255472	305.66299813330863	-247.590361354217	427.38837724017264	84.38388604687502	-111.10888239972503	390.7560816984826	284.26951711905167
508	2.535	-127.78329115949198	619.7546285008425	305.6506429321333	-247.6152245105034	427.38165819802987	84.44495819837758	-111.0950387400575	390.99252984656584	284.308630663239
509	2.54	-127.8280793590556	619.7978581980915	305.6378805196157	-247.63997798928656	427.3754429913404	84.5004094452132	-111.08502198414433	391.2259729440948	284.3462767274293
510	2.545	-127.87262732239606	619.8366953650076	305.6247176366517	-247.66465928116804	427.369690616223	84.55035063285438	-111.07886052198143	391.4566596124855	284.382794245577
511	2.55	-127.91694149727186	619.8712008138991	305.6111599239817	-247.6893097456576	427.3643656890151	84.59488839323481	-111.07657374680849	391.684805635883	284.41850073187334
512	2.555	-127.96102924483993	619.9014360885805	305.5972119490516	-247.7139746535047	427.35943873727456	84.63412467265803	-111.07817209306467	391.91059217496354	284.4536909827506
513	2.56	-128.00489883349252	619.9274634291214	305.5828772356969	-247.7387032182447	427.35488646396243	84.6681562960055	-111.08365708725961	392.13416407726845	284.4886358071476
514	2.565	-128.04855942613128	619.9493457344316	305.56815829650935	-247.76354861603687	427.35069198322014	84.6970745691306	-111.09302141111841	392.35562829201314	284.52358078972725
515	2.57	-128.09202106089273	619.9671465226838	305.5530566677432	-247.7885679928899	427.34684502625225	84.72096492114434	-111.10624897636553	392.5750523969645	284.55874509168666
516	2.575	-128.135294625366	619.9809298895875	305.53757294661125	-247.81382245839671	427.3433421159285	84.73990658810892	-111.12331501052475	392.79246324459996	284.5943202937401
517	2.58	-128.1783918243677	619.9907604645301	305.52170683081636	-247.83937706513177	427.3401867088335	84.75397233945769	-111.14418615312755	393.0078457343566	284.6304692857749
518	2.585	-128.2213251413655	619.9967033646084	305.50545716015887	-247.86530077290467	427.3373893036129	84.76322824825506	-111.16882056174244	393.2211417173497	284.6673252075932
519	2.59	-128.26410779366486	619.998824146578	305.48882196005775	-247.89166639710768	427.33496751459415	84.76773350619963	-111.19716802726074	393.43224903948544	284.70499044504425
520	2.595	-128.30675368150074	619.9971887567588	305.47179848681867	-247.91855054044856	427.3329461097984	84.76754028405638	-111.22917009790206	393.64102072842	284.74353568573565
521	2.6	-128.3492773311973	619.9918634789352	305.45438327448045	-247.94603350741835	427.3313570126004	84.76269363798374	-111.26476021143289	393.84726432932365	284.7829990383803
522	2.605	-128.39169383258465	619.9829148803013	305.436572183067	-247.97419920090738	427.33023926644796	84.7532314619967	-111.30386383512555	394.05074139389757	284.8233852196905
523	2.61	-128.43401877088309	619.9704097555004	305.4183604480736	-248.00313500045456	427.32963896220474	84.73918448658051	-111.34639861302098	394.2511671265659	284.8646648125769
524	2.615	-128.476268153289	619.9544150688224	305.3997427310105	-248.03293162169024	427.32960912784296	84.7205763232412	-111.39227452009747	394.44821019122463	284.9067735992376
525	2.62	-128.51845833051684	619.9349978946217	305.3807131708307	-248.063682956614	427.3302095803805	84.69742355455138	-111.44139402298859	394.64149268137896	284.9496119725478
526	2.625	-128.560605913573	619.9122253560273	305.36126543606537	-248.09548589443597	427.33150674012404	84.66973586902125	-111.49365224693544	394.8305902559382	284.9930444289641
527	2.63	-128.60272768605773	619.8861645620256	305.3413927774922	-248.12844012279885	427.3335734074546	84.63751623989997	-111.54893714870272	395.0150324423665	285.03689914595975
528	2.635	-128.64484051230804	619.856882542993	305.32108808116317	-248.16264790929347	427.3364885025683	84.60076114678925	-111.6071296952317	395.1943031083119	285.0809676467923
529	2.64	-128.68696124171458	619.8244461847737	305.3003439216181	-248.19821386327993	427.3403367687621	84.55946083873317	-111.66810404784898	395.3678411022548	285.1250045551852
530	2.645	-128.72910660956083	619.7889221613924	305.27915261511515	-248.23524467812484	427.34520844003146	84.51359963723448	-111.73172775189414	395.5350410631313	285.16872744227123
531	2.65	-128.77129313474757	619.7503768665064	305.2575062727091	-248.27384885407136	427.3511988739266	84.46315627744158	-111.79786193167408	395.6952543983	285.21181676790786
532	2.655	-128.81353701478199	619.7088763437005	305.2353968530128	-248.3141364020638	427.358408150792	84.40810428555066	-111.86636149069521	395.84779042863386	285.2539159182237
533	2.66	-128.85585401842027	619.6644862157408	305.2128162144815	-248.35621852895528	427.366940640687	84.34841239027743	-111.93707531716649	395.99191769893605	285.2946313410006
534	2.665	-128.89825937636724	619.6172716128998	305.1897561670612	-248.4002073046359	427.3769045394599	84.28404496607213	-112.00984649480709	396.12686545129293	285.3335327802307
535	2.67	-128.94076767044353	619.567297100481	305.16620852305044	-248.4462153117272	427.3884113756173	84.2149625055813	-112.08451251903023	396.2518252584037	285.370153610919
536	2.675	-128.98339272164154	619.5146266056689	305.14216514702633	-248.49435527859728	427.4015754897938	84.14112211870207	-112.16090551860981	396.36595281335116	285.4039912749222
537	2.68	-129.0261474774969	619.4593233438396	305.11761800469435	-248.5447396965576	427.4165134887867	84.06247805542901	-112.2388524829694	396.468369871718	285.4345078183361
538	2.685	-129.06904389920888	619.4014497444722	305.0925592105247	-248.59748042220988	427.43334367627216	83.97898224956202	-112.31817549526134	396.5581663413951	285.4611305306527
539	2.69	-129.11209284894565	619.3410673768034	305.0669810740469	-248.65268826601493	427.4521854624667	83.89058488022638	-112.39869197142889	396.6344025148885	285.48325268561916
540	2.695	-129.1553039777741	619.2782368753775	305.0408761446788	-248.71047256825588	427.4731587551304	83.79723494805444	-112.48021490546593	396.6961114383944	285.5002343834343
541	2.7	-129.19868561465321	619.2130178656447	305.0142372549752	-248.77094076366834	427.4963833344399	83.69888086279244	-112.56255312110383	396.74230141139907	285.51140349361987
